<svg xmlns="http://www.w3.org/2000/svg" xmlns:xlink="http://www.w3.org/1999/xlink" width="16" height="16" viewBox="0 0 16 16">
  <defs>
    <clipPath id="clip-path">
      <rect width="16" height="16" fill="none"/>
    </clipPath>
  </defs>
  <g id="Checkbox_on" data-name="Checkbox on" clip-path="url(#clip-path)">
    <rect id="Checkbox" width="16" height="16" rx="3" fill="#72acff"/>
    <path id="icon" d="M5,6a.908.908,0,0,1-.7-.3l-2-2a.967.967,0,0,1,0-1.4.967.967,0,0,1,1.4,0L5,3.6,8.3.3A.967.967,0,0,1,9.7.3a.967.967,0,0,1,0,1.4l-4,4A.908.908,0,0,1,5,6Z" transform="translate(2 5)" fill="#fff"/>
  </g>
</svg>
